HIERARCHY
ROOT Hips
{
	OFFSET -0.001795 -0.223333 0.028219
	CHANNELS 6 Xposition Yposition Zposition Zrotation Yrotation Xrotation 
	JOINT LeftUpLeg
	{
		OFFSET 0.069520 -0.091406 -0.006815
		CHANNELS 3 Zrotation Yrotation Xrotation
		JOINT LeftLeg
		{
			OFFSET 0.034277 -0.375199 -0.004496
			CHANNELS 3 Zrotation Yrotation Xrotation
			JOINT LeftFoot
			{
				OFFSET -0.013596 -0.397961 -0.043693
				CHANNELS 3 Zrotation Yrotation Xrotation
				JOINT LeftToe
				{
					OFFSET 0.026358 -0.055791 0.119288
					CHANNELS 3 Zrotation Yrotation Xrotation
					End Site
					{
						OFFSET 0.000000 0.000000 0.000000
					}
				}
			}
		}
	}
	JOINT RightUpLeg
	{
		OFFSET -0.067670 -0.090522 -0.004320
		CHANNELS 3 Zrotation Yrotation Xrotation
		JOINT RightLeg
		{
			OFFSET -0.038290 -0.382569 -0.008850
			CHANNELS 3 Zrotation Yrotation Xrotation
			JOINT RightFoot
			{
				OFFSET 0.015774 -0.398415 -0.042312
				CHANNELS 3 Zrotation Yrotation Xrotation
				JOINT RightToe
				{
					OFFSET -0.025372 -0.048144 0.123348
					CHANNELS 3 Zrotation Yrotation Xrotation
					End Site
					{
						OFFSET 0.000000 0.000000 0.000000
					}
				}
			}
		}
	}
	JOINT Spine
	{
		OFFSET -0.002533 0.108963 -0.026696
		CHANNELS 3 Zrotation Yrotation Xrotation
		JOINT Spine1
		{
			OFFSET 0.005487 0.135180 0.001092
			CHANNELS 3 Zrotation Yrotation Xrotation
			JOINT Spine2
			{
				OFFSET 0.001457 0.052922 0.025425
				CHANNELS 3 Zrotation Yrotation Xrotation
				JOINT Neck
				{
					OFFSET -0.002778 0.213870 -0.042857
					CHANNELS 3 Zrotation Yrotation Xrotation
					JOINT Head
					{
						OFFSET 0.005152 0.064970 0.051349
						CHANNELS 3 Zrotation Yrotation Xrotation
						End Site
						{
							OFFSET 0.000000 0.000000 0.000000
						}
					}
				}
				JOINT LeftShoulder
				{
					OFFSET 0.078845 0.121749 -0.034090
					CHANNELS 3 Zrotation Yrotation Xrotation
					JOINT LeftArm
					{
						OFFSET 0.090977 0.030469 -0.008868
						CHANNELS 3 Zrotation Yrotation Xrotation
						JOINT LeftForeArm
						{
							OFFSET 0.259612 -0.012772 -0.027456
							CHANNELS 3 Zrotation Yrotation Xrotation
							JOINT LeftHand
							{
								OFFSET 0.249234 0.008986 -0.001171
								CHANNELS 3 Zrotation Yrotation Xrotation
								End Site
								{
									OFFSET 0.000000 0.000000 0.000000
								}
							}
						}
					}
				}
				JOINT RightShoulder
				{
					OFFSET -0.081759 0.118833 -0.038615
					CHANNELS 3 Zrotation Yrotation Xrotation
					JOINT RightArm
					{
						OFFSET -0.096012 0.032551 -0.009143
						CHANNELS 3 Zrotation Yrotation Xrotation
						JOINT RightForeArm
						{
							OFFSET -0.253742 -0.013329 -0.021401
							CHANNELS 3 Zrotation Yrotation Xrotation
							JOINT RightHand
							{
								OFFSET -0.255298 0.007772 -0.005559
								CHANNELS 3 Zrotation Yrotation Xrotation
								End Site
								{
									OFFSET 0.000000 0.000000 0.000000
								}
							}
						}
					}
				}
			}
		}
	}
}
MOTION
Frames: 7
Frame Time: 0.050000
-0.174958 0.943076 -0.038951 -1.064643 7.505562 3.971222 8.376759 -0.558854 -10.658615 3.892353 -1.106660 9.255844 -2.152527 -1.429942 5.153728 0.000000 0.000000 0.000000 -2.503966 0.709867 -8.672612 0.960167 0.031035 6.523801 -3.778699 -10.166963 3.538589 0.000000 0.000000 0.000000 -3.565149 0.067851 -8.548213 1.946870 -1.034747 1.254012 1.196871 -4.597434 4.131391 -1.529672 1.348058 -2.728545 0.000000 0.000000 0.000000 -2.993047 -8.426920 2.894723 -36.230637 -25.739702 3.034967 126.533864 -40.171903 -65.545265 0.000000 0.000000 0.000000 -2.403124 14.972198 5.022391 24.797240 20.733820 1.170933 -123.702700 51.734120 -78.626389 0.000000 0.000000 0.000000 
-0.175822 0.945800 -0.038421 -1.225582 7.766500 4.319476 8.678052 -0.582964 -11.557740 4.054426 -1.131523 9.196635 -2.285684 -1.189362 6.013227 0.000000 0.000000 0.000000 -2.701672 0.708425 -8.812156 1.180557 -0.020304 5.921762 -3.606543 -9.828122 4.044542 0.000000 0.000000 0.000000 -3.411177 0.080399 -8.204918 1.956405 -1.024181 1.042056 1.097962 -4.347741 3.295300 -2.319631 1.921179 -1.701081 0.000000 0.000000 0.000000 -1.133045 -8.108737 2.756677 -34.425211 -25.335161 2.752075 124.847781 -40.548079 -64.649532 0.000000 0.000000 0.000000 -4.378257 13.839683 4.582119 23.612722 18.144099 0.684336 -123.435084 51.700822 -78.052629 0.000000 0.000000 0.000000 
-0.176363 0.946535 -0.038382 -1.223304 7.744594 4.983823 8.756442 -0.625604 -12.768961 3.966084 -1.139723 9.495479 -2.053183 -0.512618 6.462895 0.000000 0.000000 0.000000 -2.845078 0.741851 -9.371409 1.252083 -0.036799 5.635307 -3.622120 -9.815684 3.701651 0.000000 0.000000 0.000000 -3.303092 0.091926 -8.828944 1.854751 -0.988379 1.235413 0.911590 -4.405568 3.189501 -2.704844 2.225324 -1.866823 0.000000 0.000000 0.000000 -1.652219 -6.614671 2.218351 -36.475966 -24.898622 2.898106 125.851887 -41.167466 -66.566436 0.000000 0.000000 0.000000 -3.898841 13.273234 4.428433 25.138592 16.974853 0.601212 -122.357204 47.931144 -71.801399 0.000000 0.000000 0.000000 
-0.176959 0.946153 -0.038010 -1.040495 9.122164 5.326658 8.703509 -0.703052 -13.677095 3.436789 -1.086706 9.912362 -2.255177 -0.935962 6.204596 0.000000 0.000000 0.000000 -2.886958 0.738608 -9.539674 1.751189 -0.135756 5.786897 -4.130290 -10.974231 4.104839 0.000000 0.000000 0.000000 -3.979739 0.041408 -8.532870 1.807557 -0.916271 0.524251 1.316061 -5.060792 3.287456 -2.016377 1.723638 -2.636941 0.000000 0.000000 0.000000 -5.201030 -5.530807 1.715988 -41.088933 -24.076583 3.169532 130.398211 -41.383732 -71.967446 0.000000 0.000000 0.000000 -0.018119 11.781472 4.046505 29.319668 17.309595 0.923313 -122.798498 44.632911 -67.634303 0.000000 0.000000 0.000000 
-0.178033 0.946065 -0.037288 -0.893865 9.613635 5.917144 8.790600 -0.741983 -14.217014 3.272112 -1.017010 9.421867 -3.037727 -1.863118 7.096871 0.000000 0.000000 0.000000 -2.825403 0.746905 -9.631954 2.101854 -0.206365 5.224177 -4.136386 -10.998536 4.511752 0.000000 0.000000 0.000000 -4.515740 -0.006964 -9.337620 1.872361 -1.010083 1.233962 1.297258 -4.934112 2.455548 -1.774600 1.581714 -3.399874 0.000000 0.000000 0.000000 -10.515166 -5.007368 1.235300 -46.210724 -23.522028 3.630517 135.669381 -43.533497 -82.009354 0.000000 0.000000 0.000000 4.629802 11.433802 4.026890 35.796564 17.824489 1.562509 -124.582556 42.867069 -66.743195 0.000000 0.000000 0.000000 
-0.180141 0.945807 -0.036638 -0.984085 9.839221 5.670206 8.900189 -0.717754 -13.630813 3.433367 -0.987378 8.718610 -3.466172 -2.452024 7.411192 0.000000 0.000000 0.000000 -2.414034 0.751901 -9.334675 1.820921 -0.158391 5.513013 -3.969881 -10.601220 4.417365 0.000000 0.000000 0.000000 -4.618272 -0.029379 -9.664743 1.846196 -1.027461 1.564703 0.720265 -4.702328 2.837223 -0.656150 0.743778 -3.263940 0.000000 0.000000 0.000000 -13.511402 -5.817762 1.399890 -48.365852 -23.802799 3.976219 136.740467 -43.788132 -84.089198 0.000000 0.000000 0.000000 8.422486 12.107043 4.466709 41.004344 19.233609 2.388997 -124.512954 42.968829 -66.391294 0.000000 0.000000 0.000000 
-0.182788 0.945967 -0.036834 -1.043578 10.077756 5.076291 9.107277 -0.663126 -12.389208 3.387958 -0.928043 8.098170 -3.884007 -3.288354 7.272361 0.000000 0.000000 0.000000 -1.965227 0.737244 -8.770950 1.865840 -0.169427 5.487291 -4.005348 -10.708135 4.796490 0.000000 0.000000 0.000000 -4.620202 -0.037673 -9.443361 1.753989 -0.950296 1.178457 0.392558 -4.083889 3.185000 -0.291400 0.486140 -3.189978 0.000000 0.000000 0.000000 -12.273854 -8.137970 2.390284 -47.599689 -27.109808 5.232671 133.005417 -43.735742 -79.657006 0.000000 0.000000 0.000000 9.170775 12.458930 4.779300 40.785469 19.640092 2.450259 -122.525681 47.407924 -69.896378 0.000000 0.000000 0.000000 
